<svg xmlns="http://www.w3.org/2000/svg" xmlns:xlink="http://www.w3.org/1999/xlink" viewBox="0 0 450 450" width="450" height="450" preserveAspectRatio="xMidYMid meet" style="width: 100%; height: 100%; transform: translate3d(0px, 0px, 0px); content-visibility: visible;"><defs><clipPath id="__lottie_element_2"><rect width="450" height="450" x="0" y="0"/></clipPath><clipPath id="__lottie_element_4"><path d="M0,0 L1920,0 L1920,1080 L0,1080z"/></clipPath><filter id="__lottie_element_9"><feColorMatrix type="matrix" color-interpolation-filters="sRGB" values="0 0 0 0 0.7960784435272217 0 0 0 0 1 0 0 0 0 0.3294117748737335 0 0 0 1 0" result="filter_result_0"/></filter><filter id="__lottie_element_12"><feColorMatrix type="matrix" color-interpolation-filters="sRGB" values="0 0 0 0 0.7960784435272217 0 0 0 0 1 0 0 0 0 0.3294117748737335 0 0 0 1 0" result="filter_result_0"/></filter><filter id="__lottie_element_15"><feColorMatrix type="matrix" color-interpolation-filters="sRGB" values="0 0 0 0 0.7960784435272217 0 0 0 0 1 0 0 0 0 0.3294117748737335 0 0 0 1 0" result="filter_result_0"/></filter><filter id="__lottie_element_18"><feColorMatrix type="matrix" color-interpolation-filters="sRGB" values="0 0 0 0 0.7960784435272217 0 0 0 0 1 0 0 0 0 0.3294117748737335 0 0 0 1 0" result="filter_result_0"/></filter><filter id="__lottie_element_21"><feColorMatrix type="matrix" color-interpolation-filters="sRGB" values="0 0 0 0 0.7960784435272217 0 0 0 0 1 0 0 0 0 0.3294117748737335 0 0 0 1 0" result="filter_result_0"/></filter><filter id="__lottie_element_24"><feColorMatrix type="matrix" color-interpolation-filters="sRGB" values="0 0 0 0 0.7960784435272217 0 0 0 0 1 0 0 0 0 0.3294117748737335 0 0 0 1 0" result="filter_result_0"/></filter><filter id="__lottie_element_27"><feColorMatrix type="matrix" color-interpolation-filters="sRGB" values="0 0 0 0 0.7960784435272217 0 0 0 0 1 0 0 0 0 0.3294117748737335 0 0 0 1 0" result="filter_result_0"/></filter><filter id="__lottie_element_30"><feColorMatrix type="matrix" color-interpolation-filters="sRGB" values="0 0 0 0 0.7960784435272217 0 0 0 0 1 0 0 0 0 0.3294117748737335 0 0 0 1 0" result="filter_result_0"/></filter><filter id="__lottie_element_33"><feColorMatrix type="matrix" color-interpolation-filters="sRGB" values="0 0 0 0 0.7960784435272217 0 0 0 0 1 0 0 0 0 0.3294117748737335 0 0 0 1 0" result="filter_result_0"/></filter><clipPath id="__lottie_element_35"><path d="M0,0 L1920,0 L1920,1080 L0,1080z"/></clipPath><filter id="__lottie_element_40"><feColorMatrix type="matrix" color-interpolation-filters="sRGB" values="0 0 0 0 0.7960784435272217 0 0 0 0 1 0 0 0 0 0.3294117748737335 0 0 0 1 0" result="filter_result_0"/></filter><filter id="__lottie_element_43"><feColorMatrix type="matrix" color-interpolation-filters="sRGB" values="0 0 0 0 0.7960784435272217 0 0 0 0 1 0 0 0 0 0.3294117748737335 0 0 0 1 0" result="filter_result_0"/></filter><filter id="__lottie_element_46"><feColorMatrix type="matrix" color-interpolation-filters="sRGB" values="0 0 0 0 0.7960784435272217 0 0 0 0 1 0 0 0 0 0.3294117748737335 0 0 0 1 0" result="filter_result_0"/></filter><filter id="__lottie_element_49"><feColorMatrix type="matrix" color-interpolation-filters="sRGB" values="0 0 0 0 0.7960784435272217 0 0 0 0 1 0 0 0 0 0.3294117748737335 0 0 0 1 0" result="filter_result_0"/></filter><filter id="__lottie_element_52"><feColorMatrix type="matrix" color-interpolation-filters="sRGB" values="0 0 0 0 0.7960784435272217 0 0 0 0 1 0 0 0 0 0.3294117748737335 0 0 0 1 0" result="filter_result_0"/></filter><filter id="__lottie_element_55"><feColorMatrix type="matrix" color-interpolation-filters="sRGB" values="0 0 0 0 0.7960784435272217 0 0 0 0 1 0 0 0 0 0.3294117748737335 0 0 0 1 0" result="filter_result_0"/></filter><filter id="__lottie_element_58"><feColorMatrix type="matrix" color-interpolation-filters="sRGB" values="0 0 0 0 0.7960784435272217 0 0 0 0 1 0 0 0 0 0.3294117748737335 0 0 0 1 0" result="filter_result_0"/></filter><filter id="__lottie_element_61"><feColorMatrix type="matrix" color-interpolation-filters="sRGB" values="0 0 0 0 0.7960784435272217 0 0 0 0 1 0 0 0 0 0.3294117748737335 0 0 0 1 0" result="filter_result_0"/></filter><filter id="__lottie_element_64"><feColorMatrix type="matrix" color-interpolation-filters="sRGB" values="0 0 0 0 0.7960784435272217 0 0 0 0 1 0 0 0 0 0.3294117748737335 0 0 0 1 0" result="filter_result_0"/></filter></defs><g clip-path="url(#__lottie_element_2)"><g clip-path="url(#__lottie_element_35)" transform="matrix(1,0,0,1,-735,-315)" opacity="1" style="display: block;"><g filter="url(#__lottie_element_40)" transform="matrix(1,0,0,1,817.8040161132812,339.7599792480469)" opacity="1" style="display: block;"><g opacity="1" transform="matrix(1,0,0,1,41.38399887084961,200.11300659179688)"><path fill="rgb(203,255,84)" fill-opacity="1" d=" M40.72700119018555,74.45999908447266 C38.547000885009766,113.20600128173828 29.54800033569336,199.86300659179688 9.770999908447266,199.86300659179688 C9.770999908447266,199.86300659179688 9.770999908447266,199.85299682617188 9.770999908447266,199.85299682617188 C9.770999908447266,199.85299682617188 -22.347999572753906,199.85299682617188 -22.347999572753906,199.85299682617188 C-32.72100067138672,199.85299682617188 -41.13399887084961,191.84100341796875 -41.13399887084961,181.95599365234375 C-41.13399887084961,181.95599365234375 -41.13399887084961,-181.96600341796875 -41.13399887084961,-181.96600341796875 C-41.13399887084961,-191.8509979248047 -32.72999954223633,-199.86399841308594 -22.347999572753906,-199.86399841308594 C-22.347999572753906,-199.86399841308594 9.770999908447266,-199.86399841308594 9.770999908447266,-199.86399841308594 C31.19700050354004,-199.86399841308594 39.97800064086914,-98.08399963378906 41.13399887084961,-65.81199645996094 C41.13399887084961,-65.81199645996094 40.72700119018555,74.45999908447266 40.72700119018555,74.45999908447266z"/></g></g><g filter="url(#__lottie_element_43)" transform="matrix(1,0,0,1,898.6649780273438,339.7599792480469)" opacity="1" style="display: block;"><g opacity="1" transform="matrix(1,0,0,1,29.118999481201172,200.10899353027344)"><path fill="rgb(203,255,84)" fill-opacity="1" d=" M-28.461999893188477,-65.80699920654297 C-26.149999618530273,-105.6050033569336 -19.115999221801758,-199.85899353027344 -10.795999526977539,-199.85899353027344 C-10.795999526977539,-199.85899353027344 10.399999618530273,-199.85899353027344 10.399999618530273,-199.85899353027344 C20.60099983215332,-199.85899353027344 28.868999481201172,-111.63099670410156 28.868999481201172,8.385000228881836 C28.868999481201172,68.95800018310547 20.60099983215332,199.85899353027344 10.399999618530273,199.85899353027344 C10.399999618530273,199.85899353027344 -10.795999526977539,199.85899353027344 -10.795999526977539,199.85899353027344 C-19.68400001525879,199.85899353027344 -27.104999542236328,105.01000213623047 -28.868999481201172,74.46600341796875 C-28.868999481201172,74.46600341796875 -28.461999893188477,-65.80699920654297 -28.461999893188477,-65.80699920654297z"/></g></g><g filter="url(#__lottie_element_46)" transform="matrix(1,0,0,1,898.6649780273438,339.760009765625)" opacity="1" style="display: block;"><g opacity="1" transform="matrix(1,0,0,1,29.118999481201172,200.10899353027344)"><path fill="rgb(203,255,84)" fill-opacity="1" d=" M-28.461999893188477,-65.80699920654297 C-26.149999618530273,-105.6050033569336 -19.115999221801758,-199.85899353027344 -10.795999526977539,-199.85899353027344 C-10.795999526977539,-199.85899353027344 10.399999618530273,-199.85899353027344 10.399999618530273,-199.85899353027344 C20.60099983215332,-199.85899353027344 28.868999481201172,-111.63099670410156 28.868999481201172,8.385000228881836 C28.868999481201172,68.95800018310547 20.60099983215332,199.85899353027344 10.399999618530273,199.85899353027344 C10.399999618530273,199.85899353027344 -10.795999526977539,199.85899353027344 -10.795999526977539,199.85899353027344 C-19.68400001525879,199.85899353027344 -27.104999542236328,105.01000213623047 -28.868999481201172,74.46600341796875 C-28.868999481201172,74.46600341796875 -28.461999893188477,-65.80699920654297 -28.461999893188477,-65.80699920654297z"/></g></g><g filter="url(#__lottie_element_49)" transform="matrix(0.9999967813491821,0,0,0.9999967813491821,963.507080078125,341.3852844238281)" opacity="1" style="display: block;"><g opacity="1" transform="matrix(1,0,0,1,21.1299991607666,200.0540008544922)"><path fill="rgb(203,255,84)" fill-opacity="1" d=" M20.8799991607666,0 C20.8799991607666,110.3489990234375 11.531999588012695,199.8040008544922 0,199.8040008544922 C-11.531000137329102,199.8040008544922 -20.8799991607666,110.3489990234375 -20.8799991607666,0 C-20.8799991607666,-110.3489990234375 -11.531000137329102,-199.8040008544922 0,-199.8040008544922 C11.531999588012695,-199.8040008544922 20.8799991607666,-110.3489990234375 20.8799991607666,0z"/></g></g><g filter="url(#__lottie_element_52)" transform="matrix(0.9999967813491821,0,0,0.9999967813491821,963.507080078125,341.3840026855469)" opacity="1" style="display: block;"><g opacity="1" transform="matrix(1,0,0,1,21.1299991607666,200.0540008544922)"><path fill="rgb(203,255,84)" fill-opacity="1" d=" M20.8799991607666,0 C20.8799991607666,110.3489990234375 11.531999588012695,199.8040008544922 0,199.8040008544922 C-11.531000137329102,199.8040008544922 -20.8799991607666,110.3489990234375 -20.8799991607666,0 C-20.8799991607666,-110.3489990234375 -11.531000137329102,-199.8040008544922 0,-199.8040008544922 C11.531999588012695,-199.8040008544922 20.8799991607666,-110.3489990234375 20.8799991607666,0z"/></g></g><g filter="url(#__lottie_element_55)" transform="matrix(1,0,0,1,1025.3609619140625,656.8070068359375)" opacity="1" style="display: block;"><g opacity="1" transform="matrix(1,0,0,1,14.187999725341797,41.7599983215332)"><path fill="rgb(203,255,84)" fill-opacity="1" d=" M0,41.5099983215332 C5.109000205993652,41.5099983215332 13.939000129699707,22.92300033569336 13.939000129699707,0 C13.939000129699707,-22.922000885009766 5.704999923706055,-41.5099983215332 0,-41.5099983215332 C-6.111000061035156,-41.5099983215332 -13.939000129699707,-22.922000885009766 -13.939000129699707,0 C-13.939000129699707,22.92300033569336 -5.109000205993652,41.5099983215332 0,41.5099983215332z"/></g></g><g filter="url(#__lottie_element_58)" transform="matrix(1,0,0,1,1023.2040405273438,351.15301513671875)" opacity="1" style="display: block;"><g opacity="1" transform="matrix(1,0,0,1,16.34600067138672,122.73799896240234)"><path fill="rgb(203,255,84)" fill-opacity="1" d=" M0,122.48799896240234 C8.888999938964844,122.48799896240234 16.09600067138672,67.64900207519531 16.09600067138672,0.0010000000474974513 C16.09600067138672,-67.64800262451172 8.888999938964844,-122.48799896240234 0,-122.48799896240234 C-8.890000343322754,-122.48799896240234 -16.09600067138672,-67.64800262451172 -16.09600067138672,0.0010000000474974513 C-16.09600067138672,67.64900207519531 -8.890000343322754,122.48799896240234 0,122.48799896240234z"/></g></g><g filter="url(#__lottie_element_61)" transform="matrix(0.9999939203262329,0,0,0.9999939203262329,1083.8590087890625,705.6511840820312)" opacity="1" style="display: block;"><g opacity="1" transform="matrix(1,0,0,1,6.658999919891357,17.16699981689453)"><path fill="rgb(203,255,84)" fill-opacity="1" d=" M0,16.91699981689453 C2.2929999828338623,16.91699981689453 6.408999919891357,9.34000015258789 6.408999919891357,0.0010000000474974513 C6.408999919891357,-9.34000015258789 2.8889999389648438,-16.91699981689453 0,-16.91699981689453 C-3.0959999561309814,-16.91699981689453 -6.408999919891357,-9.34000015258789 -6.408999919891357,0.0010000000474974513 C-6.408999919891357,9.34000015258789 -2.490999937057495,16.91699981689453 0,16.91699981689453z"/></g></g><g filter="url(#__lottie_element_64)" transform="matrix(0.9999939203262329,0,0,0.9999939203262329,1082.8660888671875,389.7640075683594)" opacity="1" style="display: block;"><g opacity="1" transform="matrix(1,0,0,1,7.6519999504089355,83.77100372314453)"><path fill="rgb(203,255,84)" fill-opacity="1" d=" M0.0010000000474974513,83.52100372314453 C4.089000225067139,83.52100372314453 7.4029998779296875,46.12799835205078 7.4029998779296875,0 C7.4029998779296875,-46.12699890136719 4.089000225067139,-83.52100372314453 0.0010000000474974513,-83.52100372314453 C-4.086999893188477,-83.52100372314453 -7.4029998779296875,-46.12699890136719 -7.4029998779296875,0 C-7.4029998779296875,46.12799835205078 -4.086999893188477,83.52100372314453 0.0010000000474974513,83.52100372314453z"/></g></g></g><g clip-path="url(#__lottie_element_4)" transform="matrix(1,0,0,1,-735,-315)" opacity="1" style="display: none;"><g filter="url(#__lottie_element_9)" transform="matrix(0,0,0,1,939.18798828125,339.7599792480469)" opacity="1" style="display: block;"><g opacity="1" transform="matrix(1,0,0,1,41.38399887084961,200.11300659179688)"><path fill="rgb(203,255,84)" fill-opacity="1" d=" M40.72700119018555,74.45999908447266 C38.547000885009766,113.20600128173828 29.54800033569336,199.86300659179688 9.770999908447266,199.86300659179688 C9.770999908447266,199.86300659179688 9.770999908447266,199.85299682617188 9.770999908447266,199.85299682617188 C9.770999908447266,199.85299682617188 -22.347999572753906,199.85299682617188 -22.347999572753906,199.85299682617188 C-32.72100067138672,199.85299682617188 -41.13399887084961,191.84100341796875 -41.13399887084961,181.95599365234375 C-41.13399887084961,181.95599365234375 -41.13399887084961,-181.96600341796875 -41.13399887084961,-181.96600341796875 C-41.13399887084961,-191.8509979248047 -32.72999954223633,-199.86399841308594 -22.347999572753906,-199.86399841308594 C-22.347999572753906,-199.86399841308594 9.770999908447266,-199.86399841308594 9.770999908447266,-199.86399841308594 C31.19700050354004,-199.86399841308594 39.97800064086914,-98.08399963378906 41.13399887084961,-65.81199645996094 C41.13399887084961,-65.81199645996094 40.72700119018555,74.45999908447266 40.72700119018555,74.45999908447266z"/></g></g><g filter="url(#__lottie_element_12)" transform="matrix(0,0,0,0,1007.7839965820312,739.7269897460938)" opacity="1" style="display: block;"><g opacity="1" transform="matrix(1,0,0,1,29.118999481201172,200.10899353027344)"><path fill="rgb(203,255,84)" fill-opacity="1" d=" M-28.461999893188477,-65.80699920654297 C-26.149999618530273,-105.6050033569336 -19.115999221801758,-199.85899353027344 -10.795999526977539,-199.85899353027344 C-10.795999526977539,-199.85899353027344 10.399999618530273,-199.85899353027344 10.399999618530273,-199.85899353027344 C20.60099983215332,-199.85899353027344 28.868999481201172,-111.63099670410156 28.868999481201172,8.385000228881836 C28.868999481201172,68.95800018310547 20.60099983215332,199.85899353027344 10.399999618530273,199.85899353027344 C10.399999618530273,199.85899353027344 -10.795999526977539,199.85899353027344 -10.795999526977539,199.85899353027344 C-19.68400001525879,199.85899353027344 -27.104999542236328,105.01000213623047 -28.868999481201172,74.46600341796875 C-28.868999481201172,74.46600341796875 -28.461999893188477,-65.80699920654297 -28.461999893188477,-65.80699920654297z"/></g></g><g filter="url(#__lottie_element_15)" transform="matrix(0,0,0,0,1007.7839965820312,340.010009765625)" opacity="1" style="display: block;"><g opacity="1" transform="matrix(1,0,0,1,29.118999481201172,200.10899353027344)"><path fill="rgb(203,255,84)" fill-opacity="1" d=" M-28.461999893188477,-65.80699920654297 C-26.149999618530273,-105.6050033569336 -19.115999221801758,-199.85899353027344 -10.795999526977539,-199.85899353027344 C-10.795999526977539,-199.85899353027344 10.399999618530273,-199.85899353027344 10.399999618530273,-199.85899353027344 C20.60099983215332,-199.85899353027344 28.868999481201172,-111.63099670410156 28.868999481201172,8.385000228881836 C28.868999481201172,68.95800018310547 20.60099983215332,199.85899353027344 10.399999618530273,199.85899353027344 C10.399999618530273,199.85899353027344 -10.795999526977539,199.85899353027344 -10.795999526977539,199.85899353027344 C-19.68400001525879,199.85899353027344 -27.104999542236328,105.01000213623047 -28.868999481201172,74.46600341796875 C-28.868999481201172,74.46600341796875 -28.461999893188477,-65.80699920654297 -28.461999893188477,-65.80699920654297z"/></g></g><g filter="url(#__lottie_element_18)" transform="matrix(0,0,0,0,1064.636962890625,741.2420043945312)" opacity="1" style="display: block;"><g opacity="1" transform="matrix(1,0,0,1,21.1299991607666,200.0540008544922)"><path fill="rgb(203,255,84)" fill-opacity="1" d=" M20.8799991607666,0 C20.8799991607666,110.3489990234375 11.531999588012695,199.8040008544922 0,199.8040008544922 C-11.531000137329102,199.8040008544922 -20.8799991607666,110.3489990234375 -20.8799991607666,0 C-20.8799991607666,-110.3489990234375 -11.531000137329102,-199.8040008544922 0,-199.8040008544922 C11.531999588012695,-199.8040008544922 20.8799991607666,-110.3489990234375 20.8799991607666,0z"/></g></g><g filter="url(#__lottie_element_21)" transform="matrix(0,0,0,0,1064.636962890625,341.6340026855469)" opacity="1" style="display: block;"><g opacity="1" transform="matrix(1,0,0,1,21.1299991607666,200.0540008544922)"><path fill="rgb(203,255,84)" fill-opacity="1" d=" M20.8799991607666,0 C20.8799991607666,110.3489990234375 11.531999588012695,199.8040008544922 0,199.8040008544922 C-11.531000137329102,199.8040008544922 -20.8799991607666,110.3489990234375 -20.8799991607666,0 C-20.8799991607666,-110.3489990234375 -11.531000137329102,-199.8040008544922 0,-199.8040008544922 C11.531999588012695,-199.8040008544922 20.8799991607666,-110.3489990234375 20.8799991607666,0z"/></g></g><g filter="url(#__lottie_element_24)" transform="matrix(0,0,0,0,1119.5489501953125,740.0780029296875)" opacity="1" style="display: block;"><g opacity="1" transform="matrix(1,0,0,1,14.187999725341797,41.7599983215332)"><path fill="rgb(203,255,84)" fill-opacity="1" d=" M0,41.5099983215332 C5.109000205993652,41.5099983215332 13.939000129699707,22.92300033569336 13.939000129699707,0 C13.939000129699707,-22.922000885009766 5.704999923706055,-41.5099983215332 0,-41.5099983215332 C-6.111000061035156,-41.5099983215332 -13.939000129699707,-22.922000885009766 -13.939000129699707,0 C-13.939000129699707,22.92300033569336 -5.109000205993652,41.5099983215332 0,41.5099983215332z"/></g></g><g filter="url(#__lottie_element_27)" transform="matrix(0,0,0,0,1119.550048828125,351.40301513671875)" opacity="1" style="display: block;"><g opacity="1" transform="matrix(1,0,0,1,16.34600067138672,122.73799896240234)"><path fill="rgb(203,255,84)" fill-opacity="1" d=" M0,122.48799896240234 C8.888999938964844,122.48799896240234 16.09600067138672,67.64900207519531 16.09600067138672,0.0010000000474974513 C16.09600067138672,-67.64800262451172 8.888999938964844,-122.48799896240234 0,-122.48799896240234 C-8.890000343322754,-122.48799896240234 -16.09600067138672,-67.64800262451172 -16.09600067138672,0.0010000000474974513 C-16.09600067138672,67.64900207519531 -8.890000343322754,122.48799896240234 0,122.48799896240234z"/></g></g><g filter="url(#__lottie_element_30)" transform="matrix(0,0,0,0,1170.5179443359375,739.7349853515625)" opacity="1" style="display: block;"><g opacity="1" transform="matrix(1,0,0,1,6.658999919891357,17.16699981689453)"><path fill="rgb(203,255,84)" fill-opacity="1" d=" M0,16.91699981689453 C2.2929999828338623,16.91699981689453 6.408999919891357,9.34000015258789 6.408999919891357,0.0010000000474974513 C6.408999919891357,-9.34000015258789 2.8889999389648438,-16.91699981689453 0,-16.91699981689453 C-3.0959999561309814,-16.91699981689453 -6.408999919891357,-9.34000015258789 -6.408999919891357,0.0010000000474974513 C-6.408999919891357,9.34000015258789 -2.490999937057495,16.91699981689453 0,16.91699981689453z"/></g></g><g filter="url(#__lottie_element_33)" transform="matrix(0,0,0,0,1170.51904296875,390.0140075683594)" opacity="1" style="display: block;"><g opacity="1" transform="matrix(1,0,0,1,7.6519999504089355,83.77100372314453)"><path fill="rgb(203,255,84)" fill-opacity="1" d=" M0.0010000000474974513,83.52100372314453 C4.089000225067139,83.52100372314453 7.4029998779296875,46.12799835205078 7.4029998779296875,0 C7.4029998779296875,-46.12699890136719 4.089000225067139,-83.52100372314453 0.0010000000474974513,-83.52100372314453 C-4.086999893188477,-83.52100372314453 -7.4029998779296875,-46.12699890136719 -7.4029998779296875,0 C-7.4029998779296875,46.12799835205078 -4.086999893188477,83.52100372314453 0.0010000000474974513,83.52100372314453z"/></g></g></g></g></svg>