<svg xmlns="http://www.w3.org/2000/svg" width="100%" viewBox="0 0 1360 158" fill="none" class="nav-wordmark"><path d="M46.3304 20.4616H-4.57764e-05V0H116.669V20.4616H70.3388V154.759H46.3304V20.4616Z" fill="currentColor"/><path d="M114.473 0H137.621V58.9746C143.242 49.3979 154.708 40.4695 172.234 40.4695C199.492 40.4695 213.985 56.7999 213.985 85.5358V154.765H190.837V88.8007C190.837 70.5137 182.616 60.0648 166.179 60.0648C149.742 60.0648 137.627 72.2581 137.627 90.3271V154.771H114.479V0H114.473Z" fill="currentColor"/><path d="M332.183 97.2913C332.183 63.328 313.363 40.4678 279.622 40.4678C245.881 40.4678 225.755 66.3748 225.755 98.8117C225.755 136.258 247.603 157.38 280.483 157.38C304.421 157.38 322.656 145.888 329.829 124.701L308.192 122.715C303.683 133.907 294.291 138.875 280.916 138.875C264.479 138.875 249.553 128.42 248.686 103.821H331.966C332.183 101.428 332.183 99.2479 332.183 97.2913ZM249.553 87.0604C252.58 68.5554 264.479 58.7548 280.05 58.7548C295.62 58.7548 307.091 68.1193 308.824 87.0604H249.553Z" fill="currentColor"/><path d="M435.367 94.1342C455.704 88.9068 467.597 69.9126 467.597 47.7065C467.597 19.1887 448.993 0 417.197 0H349.92V154.765H373.935V20.4675H415.036C432.556 20.4675 443.372 31.5941 443.372 48.3607C443.372 65.1272 432.556 78.2399 415.036 78.2399H373.935L373.296 98.7015H411.575L448.993 154.765H476.035L435.367 94.1342Z" fill="currentColor"/><path d="M578.796 97.2913C578.796 63.328 559.976 40.4678 526.23 40.4678C492.483 40.4678 472.369 66.3748 472.369 98.8117C472.369 136.258 494.216 157.38 527.096 157.38C551.913 157.38 570.592 145.033 577.174 122.344L555.649 120.37C551.538 133.211 541.806 138.875 527.53 138.875C511.087 138.875 496.161 128.42 495.294 103.821H578.58C578.796 101.428 578.796 99.2479 578.796 97.2913ZM496.161 87.0604C499.188 68.5554 511.087 58.7548 526.663 58.7548C542.239 58.7548 553.705 68.1193 555.432 87.0604H496.161Z" fill="currentColor"/><path d="M679.327 121.89C679.327 143.012 661.806 157.38 632.171 157.38C602.535 157.38 586.76 144.515 583.75 122.945L606.452 125.031C609.486 134.449 619.107 139.311 632.387 139.311C649.041 139.311 657.046 133.647 657.046 123.634C657.046 114.706 650.124 111.659 637.148 109.697L623.733 107.522C598.857 103.821 586.525 94.2444 586.525 75.3033C586.525 55.2718 603.835 40.4678 631.954 40.4678C660.073 40.4678 676.083 54.8357 677.599 75.7394H675.69L655.184 73.8594C652.906 64.1059 643.929 58.3187 631.304 58.3187C616.811 58.3187 608.806 64.6363 608.806 73.1227C608.806 81.6091 614.867 85.7521 628.927 87.9268L642.769 90.1073C667 94.0264 679.327 102.295 679.327 121.89Z" fill="currentColor"/><path d="M685.791 99.0298C685.791 64.8485 708.506 40.4678 742.036 40.4678C775.565 40.4678 798.28 63.7641 798.28 98.8117C798.28 133.859 775.565 157.374 742.036 157.374C708.506 157.374 685.791 134.077 685.791 99.0298ZM774.699 98.8117C774.699 73.1227 760.422 59.6211 742.036 59.6211C723.649 59.6211 709.372 73.1168 709.372 98.8117C709.372 124.507 723.649 138.215 742.036 138.215C760.422 138.215 774.699 124.719 774.699 98.8117Z" fill="currentColor"/><path d="M809.382 43.0776H831.447V60.9285C836.424 50.9157 848.317 40.4609 867.137 40.4609C894.396 40.4609 908.889 56.7914 908.889 85.5272V154.756H885.741V88.7921C885.741 70.5051 877.519 60.0563 861.082 60.0563C844.646 60.0563 832.53 72.2496 832.53 90.3185V154.762H809.382V43.0776Z" fill="currentColor"/><path d="M1021.38 138.055C1012.88 134.737 1012.98 127.689 1012.98 123.699V81.8331C1012.98 55.2718 997.837 40.4678 967.768 40.4678C937.699 40.4678 921.472 57.0162 920.395 76.6057H942.676C944.187 66.1568 951.542 58.9728 967.118 58.9728C981.611 58.9728 989.832 65.7207 989.832 75.7394C989.832 84.2257 983.344 86.8424 973.389 88.3629L960.846 90.5434C935.321 94.6805 917.362 102.731 917.362 125.591C917.362 145.622 932.077 157.38 956.519 157.38C971.445 157.38 985.288 151.498 992.426 139.311C994.681 153.019 1011.44 155.199 1016.93 155.199C1017.82 155.199 1019.6 155.152 1021.91 155.081L1021.38 138.055ZM990.265 113.404C990.265 130.818 977.5 139.523 960.846 139.523C948.297 139.523 940.509 134.301 940.509 124.071C940.509 112.749 949.814 109.697 965.818 106.432L978.583 103.821C983.994 102.949 988.099 101.646 990.265 99.684V113.404Z" fill="currentColor"/><path d="M1030.92 43.0776H1052.98V60.9285C1057.96 50.9157 1069.85 40.4609 1088.67 40.4609C1115.92 40.4609 1130.42 56.7914 1130.42 85.5272V154.756H1107.27V88.7921C1107.27 70.5051 1099.05 60.0563 1082.62 60.0563C1066.18 60.0563 1054.06 72.2496 1054.06 90.3185V154.762H1030.92V43.0776Z" fill="currentColor"/><path d="M1139.8 98.8117C1139.8 64.4124 1162.3 40.4678 1194.1 40.4678C1222.65 40.4678 1241.25 56.144 1245.36 81.615H1222.87C1218.76 67.2471 1208.59 59.627 1194.31 59.627C1177.01 59.627 1163.38 72.9047 1163.38 98.8176C1163.38 124.731 1177 138.22 1194.31 138.22C1209.02 138.22 1219.41 130.164 1223.3 115.36H1245.36C1241.25 141.049 1222.22 157.38 1194.1 157.38C1160.78 157.38 1139.8 135.174 1139.8 98.8176V98.8117Z" fill="currentColor"/><path d="M1360 97.2913C1360 63.328 1341.18 40.4678 1307.43 40.4678C1273.69 40.4678 1253.57 66.3748 1253.57 98.8117C1253.57 136.258 1275.42 157.38 1308.3 157.38C1332.33 157.38 1350.61 145.799 1357.72 124.46L1336.1 122.479C1331.63 133.836 1322.2 138.875 1308.73 138.875C1292.29 138.875 1277.37 128.42 1276.5 103.821H1359.78C1360 101.428 1360 99.2479 1360 97.2913ZM1277.37 87.0604C1280.4 68.5554 1292.29 58.7548 1307.87 58.7548C1323.44 58.7548 1334.91 68.1193 1336.64 87.0604H1277.37Z" fill="currentColor"/></svg>